<?xml version="1.0" encoding="UTF-8"?>
<svg width="22px" height="22px" viewBox="0 0 22 22" version="1.1" xmlns="http://www.w3.org/2000/svg" xmlns:xlink="http://www.w3.org/1999/xlink">
    <!-- Generator: Sketch 53.2 (72643) - https://sketchapp.com -->
    <title>Group</title>
    <desc>Created with Sketch.</desc>
    <g id="Page-1" stroke="none" stroke-width="1" fill="none" fill-rule="evenodd">
        <g id="IND.-VSW---DONATION-TARGETS" transform="translate(-227.000000, -261.000000)">
            <g id="Group-3" transform="translate(0.000000, 253.000000)">
                <g id="Group" transform="translate(227.000000, 8.000000)">
                    <rect id="Rectangle" fill="#FFFFFF" x="0" y="0" width="22" height="22" rx="2"></rect>
                    <g id="globe" transform="translate(3.000000, 3.000000)" fill="#26607D" fill-rule="nonzero">
                        <path d="M10.9473684,5.05263158 C10.4644663,2.08421053 9.3254832,0 8,0 C6.6745168,0 5.53553375,2.08421053 5.05263158,5.05263158 L10.9473684,5.05263158 Z M5.05263158,8 C5.05263158,8.73026316 5.08949288,9.43092105 5.15400016,10.1052632 L10.8459998,10.1052632 C10.9105071,9.43092105 10.9473684,8.73026316 10.9473684,8 C10.9473684,7.26973684 10.9105071,6.56907895 10.8459998,5.89473684 L5.15400016,5.89473684 C5.08949288,6.56907895 5.05263158,7.26973684 5.05263158,8 Z M15.1578947,5.05263158 C14.2433045,3.03360095 12.3917388,1.4724948 10.1052632,0.842105263 C10.885543,1.84716027 11.4227848,3.36068986 11.7041972,5.05263158 L15.1578947,5.05263158 Z M5.89473684,0.842105263 C3.610013,1.4724948 1.75407486,3.03360095 0.842105263,5.05263158 L4.29799007,5.05263158 C4.57638079,3.36068986 5.11396287,1.84716027 5.89473684,0.842105263 Z M15.709501,5.89473684 L11.7894737,5.89473684 C11.861244,6.58552632 11.9022556,7.29276316 11.9022556,8 C11.9022556,8.70723684 11.861244,9.41447368 11.7894737,10.1052632 L15.7060834,10.1052632 C15.8940533,9.43092105 16,8.73026316 16,8 C16,7.26973684 15.8940533,6.56907895 15.709501,5.89473684 Z M4.09783583,8 C4.09783583,7.29276316 4.13881419,6.58552632 4.21052632,5.89473684 L0.293678235,5.89473684 C0.109275622,6.56907895 0,7.26973684 0,8 C0,8.73026316 0.109275622,9.43092105 0.293678235,10.1052632 L4.20711145,10.1052632 C4.13881419,9.41447368 4.09783583,8.70723684 4.09783583,8 Z M5.05263158,10.9473684 C5.53553375,13.9157895 6.6745168,16 8,16 C9.3254832,16 10.4644663,13.9157895 10.9473684,10.9473684 L5.05263158,10.9473684 Z M10.1052632,15.1578947 C12.388541,14.5275052 14.2433045,12.966399 15.1578947,10.9473684 L11.7041972,10.9473684 C11.4227848,12.6393101 10.885543,14.1528397 10.1052632,15.1578947 Z M0.842105263,10.9473684 C1.75669554,12.966399 3.60826116,14.5275052 5.89473684,15.1578947 C5.11445703,14.1528397 4.57721519,12.6393101 4.2958028,10.9473684 L0.842105263,10.9473684 Z" id="Shape"></path>
                    </g>
                </g>
            </g>
        </g>
    </g>
</svg>