<?xml version="1.0" encoding="utf-8"?>
<!-- Generator: Adobe Illustrator 22.0.1, SVG Export Plug-In . SVG Version: 6.00 Build 0)  -->
<svg version="1.1" id="Layer_1" xmlns="http://www.w3.org/2000/svg" xmlns:xlink="http://www.w3.org/1999/xlink" x="0px" y="0px"
	 viewBox="0 0 315.4 377.3" style="enable-background:new 0 0 315.4 377.3;" xml:space="preserve">
<style type="text/css">
	.st0{fill:none;stroke:#000000;stroke-miterlimit:10;}
	.st1{clip-path:url(#SVGID_2_);}
	.st2{fill:#26607D;}
	.st3{font-family:'Montserrat-Light';}
	.st4{font-size:47.1918px;}
	.st5{clip-path:url(#SVGID_4_);}
	.st6{fill:#45A6D7;}
	.st7{font-family:'Montserrat-SemiBold';}
	.st8{clip-path:url(#SVGID_2_);fill:none;stroke:#26607D;stroke-width:6;stroke-miterlimit:10;}
	.st9{clip-path:url(#SVGID_6_);}
	.st10{font-family:'Montserrat-Bold';}
	.st11{font-size:221.0934px;}
	.st12{clip-path:url(#SVGID_6_);fill:none;stroke:#26607D;stroke-width:6;stroke-miterlimit:10;}
	.st13{clip-path:url(#SVGID_8_);fill:none;stroke:#26607D;stroke-width:6;stroke-miterlimit:10;}
</style>
<g>
	
		<text transform="matrix(1 0 0 1 1309.832 377.1011)" class="st6" style="font-family:'Montserrat-ExtraLight'; font-size:100.888px;">DIGI</text>
	<text transform="matrix(1 0 0 1 1524.2321 377.1011)" class="st2 st7" style="font-size:100.888px;">FUND</text>
	<text transform="matrix(1 0 0 1 1319.917 428.5986)" style="font-family:'Montserrat-ExtraLight'; font-size:30.0851px;">D I G I T A L  F U N D R A I S I N G</text>
	<line class="st0" x1="1322" y1="390.4" x2="1813.3" y2="390.4"/>
</g>
<g>
	<g>
		
			<text transform="matrix(1 0 0 1 1945.9053 413.0117)" class="st6" style="font-family:'Montserrat-ExtraLight'; font-size:94.1334px;">FUND</text>
		<text transform="matrix(1 0 0 1 2221.1052 413.0117)" class="st2 st7" style="font-size:94.1334px;">EASY</text>
		
			<text transform="matrix(1 0 0 1 1954.668 443.6611)" class="st2" style="font-family:'Montserrat-ExtraLight'; font-size:28.7753px;">F U N D R A I S I N G M A D E E A S Y</text>
	</g>
</g>
<g id="Vector_Smart_Object_2_">
	<g>
		<defs>
			<rect id="SVGID_1_" x="4" y="9" width="307.6" height="368"/>
		</defs>
		<clipPath id="SVGID_2_">
			<use xlink:href="#SVGID_1_"  style="overflow:visible;"/>
		</clipPath>
		<g class="st1">
			<text transform="matrix(1 0 0 1 10.8901 362.8419)"><tspan x="0" y="0" class="st2 st3 st4">dona</tspan><tspan x="119.4" y="0" class="st2 st3 st4">t</tspan><tspan x="137.5" y="0" class="st2 st3 st4">e</tspan></text>
		</g>
		<g class="st1">
			<defs>
				<rect id="SVGID_3_" x="4" y="9" width="307.6" height="368"/>
			</defs>
			<clipPath id="SVGID_4_">
				<use xlink:href="#SVGID_3_"  style="overflow:visible;"/>
			</clipPath>
			<g class="st5">
				<text transform="matrix(1 0 0 1 176.0605 362.8419)" class="st6 st7 st4">ABLE</text>
			</g>
		</g>
		<polyline class="st8" points="18,151 18,22.9 143.7,22.9 147.8,22.9 		"/>
		<polyline class="st8" points="172.2,23.1 297.5,23.1 297.5,149.1 297.5,150.5 		"/>
		<g class="st1">
			<defs>
				<rect id="SVGID_5_" x="4" y="9" width="307.6" height="368"/>
			</defs>
			<clipPath id="SVGID_6_">
				<use xlink:href="#SVGID_5_"  style="overflow:visible;"/>
			</clipPath>
			<g class="st9">
				<text transform="matrix(1 0 0 1 70.7163 242.258)" class="st6 st10 st11">D</text>
			</g>
			<line class="st12" x1="147.8" y1="9" x2="147.8" y2="37.2"/>
			<line class="st12" x1="172.2" y1="9" x2="172.2" y2="37.2"/>
		</g>
		<line class="st8" x1="147.8" y1="286.9" x2="147.8" y2="315.1"/>
		<line class="st8" x1="172.2" y1="286.9" x2="172.2" y2="315.1"/>
		<g class="st1">
			<defs>
				<rect id="SVGID_7_" x="4" y="9" width="307.6" height="368"/>
			</defs>
			<clipPath id="SVGID_8_">
				<use xlink:href="#SVGID_7_"  style="overflow:visible;"/>
			</clipPath>
			<line class="st13" x1="311.6" y1="150.5" x2="283.4" y2="150.5"/>
			<line class="st13" x1="311.6" y1="175" x2="283.4" y2="175"/>
			<line class="st13" x1="32.2" y1="151.3" x2="4" y2="151.3"/>
			<line class="st13" x1="32.2" y1="175.7" x2="4" y2="175.7"/>
		</g>
		<polyline class="st8" points="18,176.6 18.1,301 147.8,301 		"/>
		<polyline class="st8" points="172.2,301 297.5,301 297.5,175.7 		"/>
	</g>
</g>
</svg>
